<?xml version="1.0" standalone="no"?>
<!DOCTYPE svg PUBLIC "-//W3C//DTD SVG 20010904//EN"
 "http://www.w3.org/TR/2001/REC-SVG-20010904/DTD/svg10.dtd">
<svg version="1.0" xmlns="http://www.w3.org/2000/svg"
 width="452.000000pt" height="452.000000pt" viewBox="0 0 452.000000 452.000000"
 preserveAspectRatio="xMidYMid meet">

<g transform="translate(0.000000,452.000000) scale(0.100000,-0.100000)"
fill="#000000" stroke="none">
<path d="M1683 3814 c-291 -42 -583 -150 -793 -295 -109 -74 -137 -108 -199
-241 -216 -459 -379 -1165 -407 -1758 l-6 -145 51 -77 c117 -174 278 -301 546
-429 212 -101 391 -154 545 -161 l74 -3 96 167 c52 92 98 169 101 172 3 3 50
-3 105 -14 278 -53 650 -53 928 0 55 11 102 17 105 14 3 -3 49 -80 101 -172
l96 -167 69 3 c164 7 361 67 585 178 240 119 402 249 510 410 l52 79 -6 145
c-28 595 -193 1307 -406 1755 -65 136 -93 171 -196 242 -226 154 -534 268
-809 298 -33 4 -67 9 -76 11 -13 3 -24 -17 -52 -93 -20 -54 -44 -126 -54 -161
l-17 -64 -95 9 c-123 10 -419 10 -542 0 l-95 -9 -17 64 c-23 83 -88 258 -96
257 -3 -1 -47 -7 -98 -15z m-83 -323 c0 -5 3 -16 6 -25 4 -11 -5 -18 -38 -26
-110 -28 -243 -77 -353 -130 -179 -86 -171 -67 -86 -201 40 -63 75 -114 79
-113 4 0 54 23 112 51 266 130 585 196 940 196 353 0 680 -68 940 -195 58 -29
108 -52 112 -52 4 -1 39 50 79 113 69 109 71 115 53 129 -46 35 -270 134 -394
173 -74 23 -136 43 -137 43 -1 1 0 12 4 25 5 21 9 22 52 16 127 -19 358 -113
489 -199 61 -40 65 -45 122 -161 181 -372 337 -1036 366 -1562 l7 -121 -94
-94 c-160 -161 -345 -262 -596 -328 -87 -23 -84 -24 -128 53 l-27 47 33 12
c101 35 419 213 419 234 0 3 -41 52 -91 109 l-91 103 -47 -32 c-171 -121 -441
-217 -733 -263 -158 -24 -519 -24 -676 0 -136 21 -318 66 -416 103 -100 37
-261 118 -316 159 l-47 34 -91 -104 c-51 -57 -92 -106 -92 -109 0 -21 279
-177 408 -229 47 -19 48 -16 -5 -100 -27 -43 -19 -43 -178 5 -112 33 -267 105
-365 169 -36 23 -107 84 -157 135 l-93 93 0 53 c0 132 35 437 75 655 64 345
190 766 295 978 57 116 61 121 122 161 121 79 249 135 408 179 92 26 130 30
130 16z"/>
<path d="M1653 2519 c-151 -58 -256 -254 -238 -442 16 -167 97 -293 228 -353
51 -23 68 -26 135 -22 96 4 153 31 223 105 62 66 95 136 111 236 23 153 -20
296 -121 398 -95 94 -220 123 -338 78z m153 -296 c40 -60 38 -156 -4 -212 -25
-34 -50 -33 -76 2 -17 23 -21 43 -21 105 0 65 4 82 24 110 28 39 48 38 77 -5z"/>
<path d="M2640 2518 c-70 -27 -156 -112 -193 -190 -39 -83 -54 -189 -39 -285
16 -99 48 -169 109 -234 182 -195 472 -120 563 147 28 82 34 177 16 262 -51
243 -255 377 -456 300z m151 -290 c43 -60 36 -191 -12 -234 -15 -14 -24 -16
-37 -8 -68 43 -75 186 -14 257 22 25 38 21 63 -15z"/>
</g>
</svg>
