<?xml version="1.0" standalone="no"?>
<!DOCTYPE svg PUBLIC "-//W3C//DTD SVG 20010904//EN"
 "http://www.w3.org/TR/2001/REC-SVG-20010904/DTD/svg10.dtd">
<svg version="1.0" xmlns="http://www.w3.org/2000/svg"
 width="452.000000pt" height="452.000000pt" viewBox="0 0 452.000000 452.000000"
 preserveAspectRatio="xMidYMid meet">

<g transform="translate(0.000000,452.000000) scale(0.100000,-0.100000)"
fill="#000000" stroke="none">
<path d="M3700 3901 c-30 -10 -257 -105 -505 -211 -1250 -536 -2544 -1093
-2580 -1111 -142 -72 -199 -234 -132 -371 28 -57 72 -100 137 -133 19 -10 191
-82 383 -160 191 -79 350 -144 352 -146 1 -2 60 -182 130 -399 70 -217 139
-417 153 -443 66 -123 195 -170 306 -111 20 11 137 107 262 214 124 107 229
195 234 195 7 0 413 -379 535 -500 27 -28 64 -60 81 -73 45 -31 147 -55 203
-47 100 14 201 88 250 182 30 59 555 2753 555 2853 1 63 -4 84 -27 132 -62
126 -192 176 -337 129z m60 -305 c0 -29 -521 -2671 -528 -2678 -7 -7 -148 120
-397 356 l-387 365 -141 -122 c-330 -286 -379 -328 -382 -325 -2 2 30 141 72
308 l76 305 51 55 c28 30 246 258 486 505 573 592 572 591 568 618 -7 49 -51
29 -398 -179 -519 -310 -1292 -759 -1303 -756 -71 21 -676 277 -670 283 5 5
283 126 618 270 336 145 995 428 1465 630 470 203 858 368 863 369 4 0 7 -2 7
-4z"/>
</g>
</svg>
